<svg width="15" height="15" viewBox="0 0 15 15" fill="none" xmlns="http://www.w3.org/2000/svg">
<path d="M14.359 14.3537V9.33085C14.359 6.86228 13.8276 4.97656 10.9476 4.97656C9.55901 4.97656 8.6333 5.73085 8.25616 6.45085H8.22187V5.19942H5.49615V14.3537H8.34187V9.81085C8.34187 8.61085 8.56473 7.46228 10.039 7.46228C11.4962 7.46228 11.5133 8.81656 11.5133 9.87942V14.3366H14.359V14.3537Z" fill="#005346"/>
<path d="M0.867249 5.20312H3.71296V14.3574H0.867249V5.20312Z" fill="#005346"/>
<path d="M2.29031 0.640625C1.38174 0.640625 0.644592 1.37777 0.644592 2.28634C0.644592 3.19491 1.38174 3.9492 2.29031 3.9492C3.19888 3.9492 3.93602 3.19491 3.93602 2.28634C3.93602 1.37777 3.19888 0.640625 2.29031 0.640625Z" fill="#005346"/>
</svg>
