<svg width="15" height="11" viewBox="0 0 15 11" fill="none" xmlns="http://www.w3.org/2000/svg">
<g clip-path="url(#clip0_45_710)">
<path d="M14.2337 2.06111C14.0716 1.47205 13.5966 1.00771 12.9943 0.849091C11.8938 0.554688 7.49202 0.554688 7.49202 0.554688C7.49202 0.554688 3.09036 0.554688 1.98993 0.837929C1.39915 0.996376 0.912579 1.47214 0.75053 2.06111C0.460938 3.13701 0.460938 5.36828 0.460938 5.36828C0.460938 5.36828 0.460938 7.61079 0.75053 8.67545C0.91275 9.26442 1.38757 9.72877 1.99001 9.88738C3.10195 10.1819 7.49219 10.1819 7.49219 10.1819C7.49219 10.1819 11.8938 10.1819 12.9943 9.89863C13.5967 9.7401 14.0716 9.27575 14.2338 8.68678C14.5234 7.61079 14.5234 5.37961 14.5234 5.37961C14.5234 5.37961 14.5349 3.13701 14.2337 2.06111ZM6.09057 7.4296V3.30695L9.75091 5.36828L6.09057 7.4296Z" fill="#005346"/>
</g>
<defs>
<clipPath id="clip0_45_710">
<rect width="15" height="11" fill="white"/>
</clipPath>
</defs>
</svg>
